<?xml version="1.0" encoding="UTF-8"?>
<svg version="1.1" xmlns="http://www.w3.org/2000/svg" width="512" height="512">
<path d="M0 0 C9.55047596 9.15325906 15.40208659 22.13797331 21.74487305 33.57006836 C25.82053566 40.91583421 29.99308177 48.19542011 34.25 55.4375 C39.62327775 64.58775018 44.84273115 73.81419589 50.00219727 83.08642578 C53.97815783 90.21378533 58.05174128 97.27682954 62.1875 104.3125 C67.87145144 113.98831338 73.35790608 123.76306568 78.78710938 133.58374023 C83.98152896 142.97536411 89.28018725 152.30261446 94.62646484 161.60839844 C97.75928363 167.06751183 100.87840166 172.53446564 104 178 C105.36705798 180.39330318 106.73424916 182.78653021 108.1015625 185.1796875 C108.44368271 185.77849731 108.78580292 186.37730713 109.13829041 186.9942627 C111.19655309 190.59610897 113.25704705 194.19666786 115.31942749 197.79615784 C117.00535957 200.73868101 118.69041628 203.68170472 120.375 206.625 C120.70719543 207.20537018 121.03939087 207.78574036 121.38165283 208.38369751 C126.09596644 216.62406999 130.75332054 224.89482353 135.375 233.1875 C140.47214598 242.33195571 145.69998746 251.39109092 151.00048828 260.41894531 C155.78005592 268.58009374 160.40366602 276.82226861 165.00219727 285.08642578 C168.97815783 292.21378533 173.05174128 299.27682954 177.1875 306.3125 C182.86360183 315.97495096 188.34627221 325.73422892 193.76293945 335.54418945 C198.19557177 343.56616715 202.70372678 351.54028499 207.30712891 359.46557617 C216.7038577 375.7450115 221.14070307 390.09706439 217.5625 409.0859375 C212.83268972 424.10308515 203.91828693 436.50195801 190.0625 444.2109375 C177.88154561 450.10031403 166.6347254 450.73146505 153.34196472 450.69819641 C151.62668053 450.70122008 149.91139769 450.70511063 148.19611722 450.70978898 C143.50073061 450.72005003 138.80542051 450.71789198 134.11002767 450.71360838 C129.03900609 450.71113772 123.96800277 450.72015957 118.89698792 450.72764587 C108.96914576 450.74038554 99.04133067 450.74218747 89.11348172 450.73984561 C81.04222259 450.73806143 72.97097167 450.73981424 64.89971352 450.74407005 C63.75027154 450.74466524 62.60082956 450.74526043 61.416556 450.74587366 C59.08133385 450.74708543 56.7461117 450.74829956 54.41088954 450.74951603 C32.51819636 450.76038881 10.62551859 450.75823035 -11.26717546 450.75213119 C-31.28460923 450.7469626 -51.30199433 450.75821642 -71.31941847 450.77722941 C-91.88489811 450.79661285 -112.45035473 450.80486289 -133.01584357 450.80110615 C-144.55713133 450.79919484 -156.09837767 450.8016749 -167.63965797 450.81582069 C-177.46520972 450.82774191 -187.29069454 450.82913106 -197.11624721 450.81703053 C-202.12645498 450.81114701 -207.13654039 450.81002788 -212.14673996 450.82203293 C-216.73923232 450.83290895 -221.3315004 450.82976793 -225.92398234 450.81577124 C-227.57935455 450.81312905 -229.23474443 450.81547575 -230.89009926 450.82350711 C-247.90561233 450.90028769 -264.19827413 448.31855001 -277.13671875 436.21484375 C-287.79142266 424.47661063 -294.10181332 411.21856295 -294.125 395.3125 C-294.14949219 394.45140625 -294.17398437 393.5903125 -294.19921875 392.703125 C-294.25369623 380.39121433 -289.48677045 370.06254577 -283.375 359.625 C-282.76140625 358.55314453 -282.1478125 357.48128906 -281.515625 356.37695312 C-279.60847885 353.0550159 -277.68235854 349.74482496 -275.75 346.4375 C-275.15799805 345.42123535 -274.56599609 344.4049707 -273.95605469 343.35791016 C-271.6431354 339.38893031 -269.32752544 335.42158463 -267.00244141 331.4597168 C-262.22049383 323.29816207 -257.59708185 315.0540754 -252.99780273 306.78857422 C-249.02184365 299.66121733 -244.94836002 292.59810908 -240.8125 285.5625 C-235.17018141 275.96043764 -229.73597183 266.25529042 -224.35571289 256.50439453 C-219.70169098 248.09235078 -214.89409999 239.78176025 -210.01953125 231.49609375 C-205.64737072 224.03885815 -201.4260561 216.50606352 -197.25 208.9375 C-191.97351405 199.37454918 -186.55761118 189.9095795 -181.01953125 180.49609375 C-176.64736999 173.03885691 -172.42609923 165.5060407 -168.25 157.9375 C-162.94793158 148.32933937 -157.51039043 138.81570912 -151.94921875 129.35546875 C-147.79099365 122.26588226 -143.74658451 115.11930716 -139.75 107.9375 C-134.95496006 99.32756178 -130.08621896 90.76536952 -125.125 82.25 C-124.54492188 81.25226563 -123.96484375 80.25453125 -123.3671875 79.2265625 C-115.65632654 66.04171769 -115.65632654 66.04171769 -111.75 63.4375 C-108.3824398 63.61790501 -105.75886394 63.79855284 -102.875 65.625 C-101.26217925 68.22343343 -101.00929293 70.398911 -100.75 73.4375 C-101.71875 75.98364258 -101.71875 75.98364258 -103.25 78.51953125 C-104.08917969 79.95159912 -104.08917969 79.95159912 -104.9453125 81.41259766 C-105.54085937 82.41081543 -106.13640625 83.4090332 -106.75 84.4375 C-107.88220687 86.4790928 -109.00706399 88.52477672 -110.125 90.57421875 C-116.76835094 102.59517206 -123.51393487 114.53692883 -130.47851562 126.37573242 C-134.85147913 133.83394192 -139.07330016 141.36787077 -143.25 148.9375 C-148.55365862 158.54854232 -153.99418038 168.06418861 -159.55517578 177.52832031 C-164.26592901 185.56267606 -168.83017606 193.67266849 -173.36401367 201.80786133 C-177.73772681 209.64877144 -182.16522019 217.45781715 -186.625 225.25 C-186.95769897 225.83145782 -187.29039795 226.41291565 -187.63317871 227.01199341 C-190.34376792 231.74864735 -193.05718587 236.48367902 -195.77075195 241.21862793 C-198.14016007 245.3533273 -200.50831304 249.48874243 -202.875 253.625 C-203.20737671 254.20573273 -203.53975342 254.78646545 -203.88220215 255.38479614 C-208.59634438 263.62479678 -213.25351899 271.89517961 -217.875 280.1875 C-222.97374537 289.33482506 -228.20444812 298.39605323 -233.50488281 307.42773438 C-238.22295728 315.48657355 -242.80329329 323.6167636 -247.34399414 331.77661133 C-250.5072807 337.45424843 -253.69953194 343.11307396 -256.94140625 348.74609375 C-257.29561646 349.36229584 -257.64982666 349.97849792 -258.01477051 350.6133728 C-259.72411642 353.586002 -261.43749687 356.55609745 -263.15771484 359.52246094 C-266.44525775 365.2328039 -269.62809077 370.98395494 -272.625 376.8515625 C-273.18832031 377.95322754 -273.75164062 379.05489258 -274.33203125 380.18994141 C-278.1686305 388.97686345 -278.77688695 398.3305184 -275.75 407.4375 C-270.67789197 418.64952827 -264.33392021 426.16585636 -253 431.25 C-247.79007079 433.15362798 -243.23962195 433.56340216 -237.69710255 433.56892776 C-236.6444626 433.57200672 -236.6444626 433.57200672 -235.57055721 433.57514787 C-233.21334639 433.58081322 -230.85619409 433.57936119 -228.49897766 433.57794189 C-226.79412128 433.5805258 -225.0892655 433.58353903 -223.38441056 433.5869453 C-218.69475885 433.5950156 -214.00512245 433.59680489 -209.31546462 433.59754276 C-204.25941343 433.59939326 -199.2033702 433.60694057 -194.14732361 433.61367798 C-183.08945075 433.62726198 -172.03158153 433.63328611 -160.97370172 433.63768864 C-154.06968309 433.64045091 -147.16566586 433.64468823 -140.26164818 433.64919281 C-121.14802418 433.66138549 -102.03440131 433.67168486 -82.92077351 433.6750679 C-81.08567376 433.67539725 -81.08567376 433.67539725 -79.21350129 433.67573325 C-77.98716791 433.67595153 -76.76083454 433.67616981 -75.49733955 433.6763947 C-73.01230514 433.67683817 -70.52727073 433.67728473 -68.04223633 433.67773438 C-66.80957242 433.6779558 -65.57690852 433.67817723 -64.30689117 433.67840537 C-44.33238109 433.68235357 -24.35790749 433.69980825 -4.3834115 433.7230939 C16.12200155 433.74680561 36.6273963 433.75926967 57.13282329 433.76043582 C68.64670696 433.76135267 80.1605431 433.76710762 91.67441368 433.78525543 C101.47857519 433.80065395 111.28267448 433.80577832 121.08684578 433.79751733 C126.08854941 433.79360999 131.09012773 433.79454462 136.09181595 433.80857468 C140.67324333 433.82130829 145.25445117 433.82012076 149.83587823 433.80798396 C151.49067577 433.80602604 153.14548883 433.8091098 154.80026456 433.81782833 C168.49881434 433.88541553 179.18299682 432.15167573 190.25 423.4375 C192.64374853 420.95949945 194.48065365 418.38641059 196.25 415.4375 C196.83201172 414.54998047 196.83201172 414.54998047 197.42578125 413.64453125 C201.67771553 406.3930506 203.04885748 396.83540033 201.875 388.5625 C196.281209 367.11963448 180.59427873 346.35965916 169.50585938 327.46557617 C164.68181435 319.22764342 160.00381607 310.91320626 155.35498047 302.57543945 C150.26375391 293.44612258 145.08957525 284.36655085 139.88964844 275.29882812 C136.75428733 269.82735222 133.62787732 264.35075642 130.5 258.875 C124.84461463 248.97444548 124.84461463 248.97444548 119.18057251 239.07884216 C117.49464043 236.13631899 115.80958372 233.19329528 114.125 230.25 C113.79280457 229.66962982 113.46060913 229.08925964 113.11834717 228.49130249 C108.40403356 220.25093001 103.74667946 211.98017647 99.125 203.6875 C94.58923214 195.55017601 89.96527947 187.4721053 85.25 179.4375 C79.93179741 170.37554322 74.75129148 161.24557762 69.63623047 152.06762695 C65.26248215 144.22652812 60.83487008 136.41734057 56.375 128.625 C56.04230103 128.04354218 55.70960205 127.46208435 55.36682129 126.86300659 C52.99610949 122.7202758 50.62331544 118.57873961 48.25 114.4375 C45.54022133 109.70915982 42.8315298 104.98020072 40.125 100.25 C39.62643494 99.37890091 39.62643494 99.37890091 39.11779785 98.49020386 C34.40365459 90.25020141 29.74665184 81.97972629 25.125 73.6875 C19.40485453 63.42987572 13.53309549 53.26807447 7.5859375 43.140625 C5.39932893 39.41491717 3.23775106 35.67671495 1.1015625 31.921875 C0.60809326 31.05739746 0.11462402 30.19291992 -0.39379883 29.30224609 C-1.30466542 27.70372303 -2.21114291 26.10268645 -3.11206055 24.49853516 C-8.80690607 14.53114893 -15.58993027 8.34747561 -26.625 4.5625 C-39.24219142 1.24010477 -50.15111641 4.12296579 -61.23046875 10.3515625 C-69.1174334 16.88123556 -73.67839917 26.29952109 -78.47460938 35.1484375 C-78.97154297 36.045625 -79.46847656 36.9428125 -79.98046875 37.8671875 C-80.41770264 38.67397949 -80.85493652 39.48077148 -81.30541992 40.31201172 C-82.90197426 42.66110789 -84.31093252 43.98960387 -86.75 45.4375 C-90.96079371 45.4375 -93.02012317 45.0578953 -96.25 42.3125 C-98.15594909 38.65943091 -97.87864989 36.26370318 -96.75 32.4375 C-95.11845209 28.86587194 -93.1817889 25.50489007 -91.1875 22.125 C-90.64101807 21.19018799 -90.09453613 20.25537598 -89.53149414 19.29223633 C-80.4536985 3.99043106 -69.75893696 -6.9387791 -52.328125 -12.30859375 C-33.55085132 -16.75745761 -14.89528094 -12.05069604 0 0 Z " fill="#000000" transform="translate(293.75,37.5625)"/>
<path d="M0 0 C6.02961317 3.44549324 8.76972024 9.93847161 12 15.8125 C13.06343757 17.70536437 14.128684 19.59721313 15.1953125 21.48828125 C17.61771795 25.79214694 20.02770109 30.10267592 22.4296875 34.41796875 C25.54409383 40.00675509 28.69488746 45.57337935 31.875 51.125 C32.35453125 51.96216553 32.8340625 52.79933105 33.328125 53.66186523 C34.33862124 55.42510842 35.34937097 57.18820635 36.36035156 58.95117188 C39.49571267 64.42264778 42.62212268 69.89924358 45.75 75.375 C51.40538537 85.27555452 51.40538537 85.27555452 57.06942749 95.17115784 C58.75535957 98.11368101 60.44041628 101.05670472 62.125 104 C62.45719543 104.58037018 62.78939087 105.16074036 63.13165283 105.75869751 C67.84596644 113.99906999 72.50332054 122.26982353 77.125 130.5625 C81.66076786 138.69982399 86.28472053 146.7778947 91 154.8125 C96.31820259 163.87445678 101.49870852 173.00442238 106.61376953 182.18237305 C110.98751785 190.02347188 115.41512992 197.83265943 119.875 205.625 C120.20769897 206.20645782 120.54039795 206.78791565 120.88317871 207.38699341 C123.25389051 211.5297242 125.62668456 215.67126039 128 219.8125 C130.70977867 224.54084018 133.4184702 229.26979928 136.125 234 C136.45737671 234.58073273 136.78975342 235.16146545 137.13220215 235.75979614 C142.42395529 245.00942145 147.63611097 254.3018574 152.82348633 263.61035156 C158.67836894 274.08458232 164.73517825 284.43919411 170.82348633 294.77905273 C172.92140347 298.40502325 173.41673141 300.56183965 173 304.8125 C171.5 307.6875 171.5 307.6875 169 309.8125 C163.59762533 310.75577177 163.59762533 310.75577177 161 309.8125 C155.69409846 304.62272089 152.56346156 297.90753926 149.0625 291.4375 C147.72426187 288.98986744 146.38030166 286.54540466 145.03515625 284.1015625 C144.69650543 283.48541077 144.35785461 282.86925903 144.00894165 282.23443604 C140.77449731 276.36698043 137.40240457 270.58401145 134 264.8125 C129.03838709 256.38077189 124.22634163 247.87827085 119.5 239.3125 C114.19793158 229.70433937 108.76039043 220.19070912 103.19921875 210.73046875 C98.43306287 202.60438766 93.82802189 194.39490211 89.24755859 186.16308594 C85.27163798 179.03591294 81.19816651 171.9730136 77.0625 164.9375 C71.37854856 155.26168662 65.89209392 145.48693432 60.46289062 135.66625977 C55.26847104 126.27463589 49.96981275 116.94738554 44.62353516 107.64160156 C41.49071637 102.18248817 38.37159834 96.71553436 35.25 91.25 C33.88294202 88.85669682 32.51575084 86.46346979 31.1484375 84.0703125 C30.80631729 83.47150269 30.46419708 82.87269287 30.11170959 82.2557373 C28.05349668 78.65397812 25.99304964 75.05350796 23.9307251 71.45410156 C15.84251779 57.33749216 7.81823899 43.18798256 -0.109375 28.98046875 C-2.38151342 24.90992246 -4.67742223 20.8544618 -7 16.8125 C-7.66 16.8125 -8.32 16.8125 -9 16.8125 C-9.2902002 17.35326172 -9.58040039 17.89402344 -9.87939453 18.45117188 C-16.25612625 30.30538448 -22.81862172 42.02454242 -29.640625 53.62817383 C-33.89015903 60.87090349 -38.03580846 68.16563327 -42.125 75.5 C-47.80539383 85.68834434 -53.55754515 95.83213723 -59.36035156 105.95117188 C-62.49571267 111.42264778 -65.62212268 116.89924358 -68.75 122.375 C-76.31795772 135.62368602 -76.31795772 135.62368602 -80.06942749 142.17115784 C-81.75535957 145.11368101 -83.44041628 148.05670472 -85.125 151 C-85.45719543 151.58037018 -85.78939087 152.16074036 -86.13165283 152.75869751 C-90.8459661 160.99906938 -95.50337746 169.26979219 -100.125 177.5625 C-105.19625465 186.66183297 -110.40297153 195.67216632 -115.68017578 204.65332031 C-120.06629441 212.14550958 -124.30553732 219.7115924 -128.5 227.3125 C-133.80085451 236.91833235 -139.23779099 246.42924763 -144.79638672 255.88793945 C-149.60598805 264.09003954 -154.2650982 272.37063538 -158.89526367 280.67504883 C-163.98646428 289.80417186 -169.16051508 298.88360668 -174.36035156 307.95117188 C-177.15711535 312.83176621 -179.94645647 317.71660341 -182.73660278 322.60098267 C-184.42447412 325.55571054 -186.1125835 328.51030237 -187.80078125 331.46484375 C-188.14022263 332.05891525 -188.479664 332.65298676 -188.82939148 333.26506042 C-191.0195266 337.09774066 -193.21087719 340.92972375 -195.40298462 344.76127625 C-196.8899793 347.36046175 -198.37658461 349.95986986 -199.86315918 352.55929565 C-200.57577293 353.80511469 -201.2885802 355.05082306 -202.00158691 356.29641724 C-202.98982237 358.02285584 -203.97735048 359.74969927 -204.96484375 361.4765625 C-205.80970337 362.95310303 -205.80970337 362.95310303 -206.67163086 364.45947266 C-207.48058976 365.8924346 -208.26409315 367.34068631 -209 368.8125 C-76.34 368.8125 56.32 368.8125 193 368.8125 C186.19033243 353.91463057 186.19033243 353.91463057 177 340.8125 C176.71196301 337.88412397 176.51306801 335.66215878 177 332.8125 C179.54232708 329.82152696 181.1574697 328.97047443 185 328.25 C189.04288475 329.00804089 190.2801844 330.77405041 193 333.8125 C194.80517578 336.57983398 194.80517578 336.57983398 196.4453125 339.55859375 C197.04730469 340.64333984 197.64929688 341.72808594 198.26953125 342.84570312 C199.18798828 344.53083008 199.18798828 344.53083008 200.125 346.25 C200.74503906 347.36955078 201.36507813 348.48910156 202.00390625 349.64257812 C211.18227617 366.27220534 211.18227617 366.27220534 210 373.8125 C208.2361908 378.64875103 205.26511098 381.96909268 201 384.8125 C197.53979985 385.96590005 194.86531914 385.94027766 191.2132597 385.94392776 C190.16734883 385.94700672 190.16734883 385.94700672 189.10030845 385.95014787 C186.74635411 385.95583594 184.39245795 385.9543584 182.03849792 385.95294189 C180.34076648 385.95552449 178.64303564 385.95853736 176.94530565 385.9619453 C172.26621592 385.97003087 167.58714153 385.97180573 162.90804565 385.97254276 C157.86703253 385.9743906 152.82602742 385.98193654 147.78501892 385.98867798 C136.7562209 386.00227262 125.72742651 386.0082877 114.69862151 386.01268864 C107.81575108 386.015449 100.93288206 386.01968596 94.05001259 386.02419281 C75.00337277 386.03638667 55.95673408 386.04668594 36.91009045 386.0500679 C35.69054935 386.05028747 34.47100825 386.05050703 33.21451135 386.05073325 C31.38075908 386.05106067 31.38075908 386.05106067 29.50996131 386.0513947 C27.03260116 386.05183817 24.55524101 386.05228473 22.07788086 386.05273438 C20.84901794 386.0529558 19.62015502 386.05317723 18.35405383 386.05340537 C-1.56508695 386.05735474 -21.48419119 386.07481246 -41.40331785 386.0980939 C-61.84084753 386.12178898 -82.27835886 386.1342689 -102.71590251 386.13543582 C-114.19615366 386.13635359 -125.67635718 386.14213154 -137.15659523 386.16025543 C-146.93090944 386.17563152 -156.70516131 386.18079162 -166.47948531 386.17251733 C-171.46852793 386.16860205 -176.45744489 386.16958313 -181.44647217 386.18357468 C-186.01173349 386.19626099 -190.57677407 386.19516267 -195.14203485 386.18298396 C-196.79547511 386.1810178 -198.44893073 386.18414758 -200.10234938 386.19282833 C-202.34708113 386.20386943 -204.59102674 386.19646962 -206.83573627 386.1844368 C-208.70721678 386.18533243 -208.70721678 386.18533243 -210.61650497 386.18624616 C-215.00120712 385.70190509 -218.37100043 384.29833334 -221.64453125 381.3125 C-225.21699101 376.72445803 -226.47651207 373.33592783 -226.41015625 367.44921875 C-225.00449279 358.41281081 -218.18582318 349.51590461 -213.5625 341.75 C-208.40798817 333.00830114 -203.3994619 324.19955469 -198.5 315.3125 C-193.19831296 305.70413383 -187.76038458 296.19069917 -182.19921875 286.73046875 C-178.04099803 279.64088973 -173.99629033 272.49446507 -170 265.3125 C-165.44730533 257.13058843 -160.80740304 249.00943465 -156.0625 240.9375 C-150.37854856 231.26168662 -144.89209392 221.48693432 -139.46289062 211.66625977 C-134.26847104 202.27463589 -128.96981275 192.94738554 -123.62353516 183.64160156 C-120.49071637 178.18248817 -117.37159834 172.71553436 -114.25 167.25 C-112.88294202 164.85669682 -111.51575084 162.46346979 -110.1484375 160.0703125 C-109.80631729 159.47150269 -109.46419708 158.87269287 -109.11170959 158.2557373 C-107.05344691 154.65389103 -104.99295295 151.05333214 -102.93057251 147.45384216 C-101.24464043 144.51131899 -99.55958372 141.56829528 -97.875 138.625 C-97.54280457 138.04462982 -97.21060913 137.46425964 -96.86834717 136.86630249 C-92.15403356 128.62593001 -87.49667946 120.35517647 -82.875 112.0625 C-77.77785402 102.91804429 -72.55001254 93.85890908 -67.24951172 84.83105469 C-63.07710617 77.70664019 -59.01491928 70.5266943 -55 63.3125 C-49.84551952 54.05185915 -44.57937788 44.86561271 -39.19726562 35.73535156 C-36.20199226 30.64136072 -33.27291972 25.52302754 -30.44140625 20.3359375 C-29.86334229 19.28422363 -29.28527832 18.23250977 -28.68969727 17.14892578 C-27.59326329 15.14616342 -26.5083805 13.13701727 -25.43725586 11.12060547 C-19.9707428 1.17000331 -11.59092832 -4.38946398 0 0 Z " fill="#000000" transform="translate(264,63.1875)"/>
<path d="M0 0 C7.53173326 5.29511837 10.7526795 10.64629692 13.18359375 19.53515625 C13.68421067 23.1579871 13.73277862 26.70230321 13.70117188 30.35571289 C13.70818115 31.37513474 13.71519043 32.39455658 13.72241211 33.44487 C13.73986326 36.77863678 13.72841581 40.11153871 13.71484375 43.4453125 C13.71754214 45.78218243 13.72142745 48.11905125 13.72644043 50.45591736 C13.73231789 55.33864091 13.7238281 60.22107054 13.70507812 65.10375977 C13.68227741 71.34331916 13.69543058 77.58219063 13.71936798 83.82172489 C13.73386238 88.64234038 13.72920342 93.46279433 13.71885681 98.28341484 C13.71620027 100.58337932 13.71942128 102.88335875 13.72877502 105.18330574 C13.73900189 108.40392727 13.7233536 111.6234536 13.70117188 114.84399414 C13.7092688 115.78193817 13.71736572 116.7198822 13.72570801 117.68624878 C13.6241633 125.6964486 11.40726847 132.16787739 6.99609375 138.84765625 C-0.49731552 146.00802511 -8.08180838 147.89359762 -18.2265625 147.8203125 C-23.11301094 147.43216154 -26.67227147 146.07855228 -30.81640625 143.53515625 C-31.70328125 142.99890625 -32.59015625 142.46265625 -33.50390625 141.91015625 C-39.19055222 136.06981715 -42.9182422 129.25305462 -42.96357727 121.05929565 C-42.97073257 120.16793411 -42.97788788 119.27657257 -42.98526001 118.35820007 C-42.98929337 116.90254387 -42.98929337 116.90254387 -42.9934082 115.41748047 C-42.9999794 114.38932724 -43.0065506 113.36117401 -43.01332092 112.30186462 C-43.03303712 108.8978569 -43.04471388 105.4938933 -43.0546875 102.08984375 C-43.05876303 100.92550938 -43.06283855 99.761175 -43.06703758 98.56155777 C-43.08789283 92.39683459 -43.102196 86.23213363 -43.11157227 80.06738281 C-43.1226254 73.71223823 -43.15701469 67.35744486 -43.19674397 61.00242424 C-43.22294038 56.10549282 -43.2312669 51.20864464 -43.23485374 46.31164932 C-43.23971314 43.9697953 -43.25130854 41.62794484 -43.26989174 39.28615952 C-43.29434295 36.00022646 -43.29330665 32.71519615 -43.28637695 29.42919922 C-43.29918701 28.47090714 -43.31199707 27.51261505 -43.32519531 26.52528381 C-43.26663828 18.86577703 -41.44244943 12.25772709 -36.9921875 5.94921875 C-26.66409305 -3.96748409 -13.09147113 -7.717304 0 0 Z M-24.81640625 17.53515625 C-26.53833829 20.39265037 -27.0678081 22.4899367 -27.07710266 25.81015015 C-27.08418747 26.6568074 -27.09127228 27.50346466 -27.09857178 28.3757782 C-27.09609436 29.29639542 -27.09361694 30.21701263 -27.09106445 31.16552734 C-27.09617538 32.14158432 -27.10128632 33.1176413 -27.10655212 34.12327576 C-27.12045886 37.35177737 -27.1194904 40.58006574 -27.1171875 43.80859375 C-27.12107407 46.05294881 -27.12540866 48.29730313 -27.13017273 50.54165649 C-27.13763745 55.2475218 -27.13734199 59.95331209 -27.13208008 64.65917969 C-27.12628777 70.68734669 -27.14320967 76.71520621 -27.16642475 82.74332237 C-27.18116319 87.37932122 -27.18203358 92.01524606 -27.17891502 96.65126419 C-27.17942826 98.87359857 -27.18466651 101.09593708 -27.19472694 103.31824875 C-27.20707471 106.42770046 -27.20030908 109.53655383 -27.1887207 112.64599609 C-27.19636444 113.56256485 -27.20400818 114.47913361 -27.21188354 115.42347717 C-27.1697295 120.54554157 -26.67730421 124.10383393 -23.81640625 128.53515625 C-20.31088205 131.53989128 -17.21511313 132.01857238 -12.7421875 131.81640625 C-9.77856707 131.38358542 -8.08589831 130.48043516 -5.81640625 128.53515625 C-2.41999489 123.26370609 -2.38248907 118.73751017 -2.41235352 112.67773438 C-2.40205864 111.21321083 -2.40205864 111.21321083 -2.39155579 109.71910095 C-2.37329907 106.50138689 -2.37712338 103.28416085 -2.3828125 100.06640625 C-2.37825056 97.82490887 -2.37294495 95.58341289 -2.3669281 93.34191895 C-2.35799949 88.64797273 -2.36041785 83.95419668 -2.37036133 79.26025391 C-2.38185754 73.2477366 -2.36162777 67.23580602 -2.33244419 61.22336578 C-2.3140923 56.59592973 -2.31437256 51.96863458 -2.32008171 47.34117126 C-2.32023501 45.12441687 -2.31418354 42.90765298 -2.30179024 40.69093323 C-2.28689955 37.59110752 -2.29754343 34.49236996 -2.31469727 31.39257812 C-2.3050293 30.47915146 -2.29536133 29.56572479 -2.28540039 28.62461853 C-2.36106254 22.08943076 -4.04211658 18.50760947 -8.56640625 13.66015625 C-15.39096141 10.24787867 -20.01288635 12.50289731 -24.81640625 17.53515625 Z " fill="#000000" transform="translate(270.81640625,183.46484375)"/>
<path d="M0 0 C27.41549947 8.55842856 50.96077994 26.0432997 64.5625 51.66796875 C74.66829628 71.72878936 78.66993658 92.91820318 76.1875 115.25 C76.08260254 116.26126953 76.08260254 116.26126953 75.97558594 117.29296875 C75.42504942 121.72358136 74.30153851 125.17376469 72 129 C68.90826248 130.54586876 66.40570448 130.29359521 63 130 C60.36526242 128.12794962 59.25967543 126.87067644 58.3359375 123.7734375 C57.92786771 120.40448926 58.41176185 117.65442798 59 114.3125 C62.55162783 90.91491239 55.88036152 67.87652644 42.26220703 48.70507812 C29.14050227 30.97935549 11.37154357 20.9040322 -9.64453125 15.01953125 C-12.46884083 13.79706889 -13.51169439 12.67398908 -15 10 C-14.93262685 6.22710373 -14.44523698 3.77432518 -12.5625 0.5 C-8.282606 -2.00530381 -4.70131172 -1.11456066 0 0 Z " fill="#000000" transform="translate(430,98)"/>
<path d="M0 0 C2.94427735 2.06895165 3.84332955 3.50909927 4.9375 6.9375 C5.01704877 10.83538968 4.49852557 11.99432492 2 15 C-1.05304097 16.50679008 -4.24806416 17.4497611 -7.5 18.4375 C-30.68736926 26.05676614 -48.34202325 40.32711705 -60 62 C-68.78067673 79.7720897 -71.99878613 98.8356032 -68.49951172 118.34326172 C-67.72162767 123.17089324 -68.3332023 125.90677563 -71 130 C-74.09173752 131.54586876 -76.59429552 131.29359521 -80 131 C-83.38666834 128.89477374 -84.27693368 126.60304329 -85.1875 122.875 C-90.14777975 96.01047605 -85.05242947 67.30954963 -69.73046875 44.4765625 C-67.583502 41.5512733 -65.35193201 38.76239135 -63 36 C-62.29230469 35.14277344 -61.58460937 34.28554687 -60.85546875 33.40234375 C-48.41157193 18.89567485 -20.84635958 -3.47439326 0 0 Z " fill="#000000" transform="translate(92,97)"/>
<path d="M0 0 C7.67745308 3.97109642 13.26228207 9.25081527 16.25 17.4375 C18.57554923 25.1526667 17.81814496 32.88238032 14.5 40.15234375 C10.4381152 47.5779769 5.20098099 51.52978161 -2.75 54.4375 C-10.02354691 56.3333308 -17.39871638 55.51488702 -24.171875 52.28125 C-31.01086991 48.15031348 -34.72768493 42.66597697 -38.125 35.5625 C-39.69430823 27.71595883 -39.56001121 19.61153448 -35.75 12.4375 C-27.57091745 0.79875955 -13.97269992 -5.69618777 0 0 Z M-21.6875 20.625 C-23.24084229 24.7367884 -23.02559177 28.2462699 -21.75 32.4375 C-19.41663334 35.44083267 -19.41663334 35.44083267 -16.75 37.4375 C-16.42 37.7675 -16.09 38.0975 -15.75 38.4375 C-11.5499898 38.88874076 -7.82558929 38.85838277 -3.875 37.3125 C-0.35438205 34.2060724 1.01530191 31.0468583 1.6875 26.4375 C0.97628836 21.56062017 -1.30173834 18.58086447 -5.125 15.5625 C-12.10625257 12.57053461 -16.87046374 15.18641068 -21.6875 20.625 Z " fill="#000000" transform="translate(266.75,345.5625)"/>
<path d="M0 0 C15.92154934 4.63872112 29.45923624 14.73235116 38.0703125 28.89453125 C40.01436367 32.47808249 41.62134615 36.08550607 43.0703125 39.89453125 C43.39 40.68601563 43.7096875 41.4775 44.0390625 42.29296875 C46.20937284 48.66323151 46.37805716 54.97763035 46.4453125 61.64453125 C46.46621948 62.99393799 46.46621948 62.99393799 46.48754883 64.37060547 C46.44767525 69.9560133 45.80648459 73.98740572 43.0703125 78.89453125 C40.0703125 80.89453125 40.0703125 80.89453125 36.6328125 80.76953125 C32.52941171 79.76167843 31.41940184 79.37428118 29.0703125 75.89453125 C28.66591411 72.21611404 28.89415412 68.58449341 29.0703125 64.89453125 C29.4049717 50.42782059 26.3777228 40.16344291 16.6953125 29.20703125 C15.8290625 28.44390625 14.9628125 27.68078125 14.0703125 26.89453125 C13.5546875 26.4253125 13.0390625 25.95609375 12.5078125 25.47265625 C7.57489339 21.34771527 2.24750883 19.14740241 -3.73779297 16.98657227 C-9.94861262 14.70522594 -9.94861262 14.70522594 -11.9296875 11.89453125 C-12.56392864 7.61340353 -12.36201848 5.58626081 -10.0546875 1.89453125 C-6.2327599 -0.55150242 -4.40430116 -0.70337347 0 0 Z " fill="#000000" transform="translate(416.9296875,139.10546875)"/>
<path d="M0 0 C2.9236459 2.5488195 3.84909176 4.19515606 4.5625 8 C3.98646742 11.07217378 3.28119899 12.69343862 0.9453125 14.7890625 C-2.67517778 17.04278135 -6.77348578 18.24321126 -10.76953125 19.68359375 C-15.1554624 21.47084744 -18.4877885 23.8658974 -22 27 C-22.86625 27.763125 -23.7325 28.52625 -24.625 29.3125 C-35.1490215 41.22126117 -37.59789131 52.47606404 -36.85302734 68.07861328 C-36.59437107 75.41292845 -36.59437107 75.41292845 -38.81640625 78.62890625 C-41.66390824 80.41687261 -43.63288453 80.93128336 -47 81 C-50.34888143 79.70611399 -51.64310919 78.7973889 -53.1171875 75.50390625 C-57.0732505 59.80218716 -53.85860541 42.4408792 -45.75 28.65625 C-36.41646222 14.48927301 -18.64559417 -2.46262565 0 0 Z " fill="#000000" transform="translate(103,139)"/>
</svg>
