<svg version="1.1" id="Layer_1" xmlns="http://www.w3.org/2000/svg" xmlns:xlink="http://www.w3.org/1999/xlink" x="0px" y="0px"
	 width="100%" viewBox="0 0 512 512" enable-background="new 0 0 512 512" xml:space="preserve">
<path fill="#000000" opacity="1.000000" stroke="none" 
	d="
M223.468658,513.000000 
	C218.498428,510.068665 213.070770,509.777466 208.196075,507.761292 
	C192.682419,501.344849 181.103317,490.401947 172.039902,476.777832 
	C158.037781,455.729767 152.016159,431.794861 148.842987,407.113953 
	C147.450745,396.285187 147.433182,385.284210 146.642761,374.372192 
	C145.957169,364.907288 144.174286,355.685944 140.142776,346.980865 
	C130.207520,325.528015 142.274017,300.292969 165.291397,295.065918 
	C176.557007,292.507568 187.339203,294.245331 196.761505,301.602905 
	C197.923645,302.510406 199.236481,303.224945 200.647202,304.137360 
	C202.255981,302.284882 201.613220,300.219574 201.616150,298.372253 
	C201.663925,268.208130 201.555252,238.043442 201.691818,207.879822 
	C201.758499,193.156891 208.755341,182.083038 222.047958,176.323227 
	C234.501007,170.927216 247.295486,172.564728 258.657013,182.664536 
	C265.748383,188.968414 269.236298,197.470016 269.309052,207.028625 
	C269.447296,225.192780 269.330414,243.358780 269.382355,261.523834 
	C269.387360,263.269379 268.780762,265.170288 270.129700,266.870941 
	C287.247620,260.435486 302.363281,262.546570 314.516113,277.775513 
	C325.021210,269.738983 336.434723,267.529175 348.791229,272.032104 
	C361.324188,276.599335 368.075043,286.103577 370.754669,299.447174 
	C377.226532,295.888977 383.755371,295.506805 390.456238,295.598938 
	C406.087646,295.813904 421.246948,310.638245 421.319641,326.323792 
	C421.426208,349.321442 421.865204,372.335419 421.178406,395.313019 
	C420.661011,412.623016 416.454468,429.398895 409.617401,445.387695 
	C407.370941,450.641144 402.534149,452.673370 397.869141,450.790802 
	C393.325195,448.957123 391.716095,444.871368 393.716614,439.184967 
	C397.790863,427.603943 401.912842,416.051239 403.141876,403.720917 
	C403.650726,398.615906 404.537262,393.513336 404.583099,388.403656 
	C404.756348,369.073425 404.728790,349.740326 404.627533,330.409119 
	C404.572571,319.917328 396.653687,312.048431 386.787476,312.341797 
	C380.103607,312.540527 374.327911,316.912811 372.212860,323.279358 
	C370.292023,329.061249 370.276306,335.017120 370.323517,341.009796 
	C370.375763,347.637054 368.236115,350.172729 362.752197,350.350098 
	C357.084717,350.533386 353.793732,347.363922 353.709747,341.008636 
	C353.551270,329.011627 353.706177,317.010895 353.634644,305.012268 
	C353.555664,291.761871 343.037598,284.203125 330.609283,288.380188 
	C324.721588,290.358978 320.425232,296.561432 320.366882,303.424988 
	C320.291840,312.256989 320.453369,321.092255 320.280487,329.921570 
	C320.194611,334.308990 318.684296,337.944824 313.923584,339.559448 
	C310.177704,340.829895 307.306335,339.608398 305.075439,336.900513 
	C303.015839,334.400543 302.677460,331.162628 302.671265,327.979828 
	C302.652100,318.147339 302.123474,308.276703 302.814453,298.493073 
	C303.487854,288.959106 294.776367,280.514771 286.686066,280.365479 
	C277.232605,280.191010 269.432037,288.344818 269.371826,298.599670 
	C269.291565,312.264740 269.325012,325.930664 269.350403,339.596130 
	C269.357697,343.524475 267.686859,346.395599 264.043030,347.796722 
	C260.421661,349.189148 257.262848,348.091400 254.459396,345.470215 
	C252.310349,343.460876 252.677490,340.941925 252.676682,338.482391 
	C252.662689,296.319153 252.709976,254.155807 252.618851,211.992752 
	C252.604691,205.441940 251.202209,199.508850 245.819183,194.609131 
	C237.433640,186.976440 222.624832,191.451645 219.456558,203.596405 
	C218.618011,206.810760 218.291351,210.091660 218.294830,213.456940 
	C218.354935,271.618835 218.348572,329.780823 218.338211,387.942780 
	C218.337021,394.611267 214.486801,398.217926 208.536926,397.255951 
	C204.297470,396.570496 201.702576,393.314240 201.678528,388.248657 
	C201.614426,374.750031 202.847031,361.113739 201.317520,347.790100 
	C199.743805,334.081421 195.325195,320.558563 181.988541,313.116302 
	C172.398041,307.764526 159.470535,313.667816 155.202255,323.941376 
	C152.320389,330.877930 154.296738,336.942505 157.036758,343.042938 
	C162.090271,354.294220 163.867935,366.270660 164.221970,378.360107 
	C164.980408,404.259094 168.106384,429.581543 179.083832,453.428558 
	C191.209396,479.769684 210.961029,497.032013 242.717484,496.696411 
	C265.546387,496.455109 288.389038,496.245972 311.209198,496.755341 
	C340.553711,497.410400 363.043976,485.077698 380.431152,462.166504 
	C381.231201,461.112244 381.951019,459.944611 382.935425,459.092224 
	C386.476013,456.026123 390.703491,455.445770 394.470612,457.928925 
	C398.394318,460.515289 397.922638,464.762512 396.480896,468.734833 
	C395.086487,472.576935 392.112457,475.393463 389.562836,478.394226 
	C375.330994,495.144287 357.981598,507.033386 336.232483,511.863342 
	C335.940674,511.928162 335.706360,512.252075 335.222595,512.727539 
	C297.979095,513.000000 260.958221,513.000000 223.468658,513.000000 
z"/>
<path fill="#000000" opacity="1.000000" stroke="none" 
	d="
M451.531342,1.000000 
	C457.132599,4.424728 463.394287,5.285089 468.624725,8.672912 
	C486.606567,20.320007 497.109344,36.342381 497.274292,58.042370 
	C497.547852,94.030502 497.731689,130.027878 497.199249,166.010208 
	C496.900726,186.185013 486.921539,201.639343 470.254395,212.763977 
	C459.391663,220.014374 447.305084,222.504410 434.320221,222.451004 
	C386.833954,222.255722 339.346375,222.383911 291.859314,222.348282 
	C283.838501,222.342270 280.091400,216.887085 283.104034,209.975235 
	C284.606842,206.527451 287.345215,205.634842 290.766785,205.651459 
	C299.097626,205.691925 307.428833,205.650497 315.759888,205.650391 
	C355.082520,205.649948 394.405701,205.763672 433.727386,205.570709 
	C442.880646,205.525803 451.793365,203.856888 459.810303,198.685287 
	C473.145844,190.082779 480.335175,177.799728 480.525391,162.195129 
	C480.939606,128.209396 481.033844,94.209427 480.513611,60.226685 
	C480.219330,41.005947 467.833313,24.219301 448.242645,19.045731 
	C443.667389,17.837488 439.164001,17.338251 434.486908,17.339800 
	C340.679108,17.370859 246.871307,17.363085 153.063507,17.362558 
	C150.730820,17.362545 148.397568,17.321922 146.065552,17.360018 
	C142.113022,17.424589 138.390488,16.963890 136.098694,13.150388 
	C133.548035,8.906137 135.125153,5.205917 137.839569,1.325521 
	C242.354233,1.000000 346.708466,1.000000 451.531342,1.000000 
z"/>
<path fill="#000000" opacity="1.000000" stroke="none" 
	d="
M122.531342,1.000000 
	C125.519524,4.645347 127.725319,8.249421 125.047668,12.896332 
	C122.393723,17.502096 118.096382,17.404009 113.721260,17.361891 
	C112.888428,17.353872 112.055466,17.360025 111.222565,17.360191 
	C100.561417,17.362331 89.898621,17.486645 79.239449,17.342722 
	C52.710426,16.984524 33.236969,36.620556 33.323948,63.035774 
	C33.429810,95.185448 33.441330,127.336113 33.312832,159.485626 
	C33.238636,178.048950 41.558327,191.630310 57.424244,200.603638 
	C64.290276,204.486862 72.163307,205.566956 79.969246,205.595901 
	C114.617493,205.724380 149.267899,205.815567 183.914093,205.518936 
	C191.321136,205.455521 195.064468,212.249619 192.190720,218.020020 
	C190.695236,221.022919 188.190231,222.346512 184.932571,222.347305 
	C146.952301,222.356628 108.934837,223.377701 71.004753,221.998520 
	C45.495686,221.070984 24.374790,202.794907 17.705811,175.737350 
	C16.901888,172.475662 16.631660,169.218201 16.634834,165.876663 
	C16.669004,129.895325 16.566793,93.913612 16.691751,57.932671 
	C16.765587,36.671696 27.298519,21.194366 44.242897,9.383462 
	C49.798100,5.511266 56.314159,3.958466 62.692799,1.166641 
	C82.687561,1.000000 102.375122,1.000000 122.531342,1.000000 
z"/>
<path fill="#000000" opacity="1.000000" stroke="none" 
	d="
M170.369400,57.439095 
	C172.703018,59.249447 173.383316,61.269306 173.378967,63.804234 
	C173.324356,95.619949 173.298203,127.435928 173.396118,159.251434 
	C173.408981,163.424286 171.241806,165.327545 167.701462,166.231903 
	C164.450348,167.062378 161.101212,166.823380 157.879288,166.155487 
	C153.694244,165.287964 152.635818,162.092010 152.647720,158.234833 
	C152.683716,146.574722 152.466446,134.909805 152.748627,123.256462 
	C152.858948,118.701118 151.552551,117.032478 146.855881,117.260712 
	C139.543716,117.616051 132.198700,117.487328 124.873894,117.307503 
	C121.350258,117.221001 120.247849,118.593102 120.289474,122.009285 
	C120.431557,133.667755 120.364586,145.329147 120.326767,156.989273 
	C120.302887,164.353958 117.287025,167.034180 109.274139,166.954285 
	C102.432472,166.886063 99.653831,164.128876 99.651772,157.300247 
	C99.642563,126.817032 99.684280,96.333733 99.614586,65.850685 
	C99.605240,61.760757 99.982513,58.152725 104.503456,56.580791 
	C109.333168,54.901493 113.994980,55.136070 118.284111,58.068062 
	C120.294464,59.442307 120.355629,61.680313 120.348328,63.914284 
	C120.314041,74.408371 120.509811,84.906769 120.257736,95.394836 
	C120.155663,99.641678 121.692970,100.874825 125.753571,100.730743 
	C133.073654,100.471016 140.412979,100.523666 147.737396,100.712837 
	C151.397858,100.807373 152.777176,99.510979 152.711136,95.796692 
	C152.539429,86.138458 152.654694,76.475044 152.663849,66.813705 
	C152.672592,57.598095 157.683792,53.742668 166.759674,56.000160 
	C167.880325,56.278908 168.945480,56.780750 170.369400,57.439095 
z"/>
<path fill="#000000" opacity="1.000000" stroke="none" 
	d="
M189.650009,92.999893 
	C189.650681,83.501770 189.626480,74.503563 189.660706,65.505577 
	C189.686066,58.832996 192.324875,55.752377 198.801849,55.698730 
	C216.296829,55.553810 233.794678,55.570576 251.289642,55.723061 
	C256.830597,55.771358 259.455353,59.268188 259.340057,65.500099 
	C259.221466,71.907333 257.162415,74.264923 251.187927,74.317261 
	C239.691162,74.417969 228.190491,74.506897 216.696823,74.300941 
	C212.503067,74.225784 211.104782,75.722511 211.282410,79.830894 
	C211.548477,85.984818 211.471878,92.161804 211.307388,98.322739 
	C211.220459,101.578392 212.451309,102.792068 215.690857,102.692825 
	C221.017792,102.529640 226.356033,102.569977 231.685394,102.696701 
	C237.266434,102.829399 240.055496,105.978195 239.933655,111.713402 
	C239.831299,116.531509 236.813400,119.304199 231.494034,119.351166 
	C226.162262,119.398247 220.827774,119.446404 215.498322,119.325233 
	C212.550842,119.258224 211.260635,120.334915 211.318893,123.397316 
	C211.445633,130.060135 211.473923,136.730072 211.304596,143.391052 
	C211.219971,146.719559 212.594971,147.720566 215.757568,147.688248 
	C226.920654,147.574142 238.086655,147.566254 249.249710,147.687683 
	C256.927917,147.771179 259.454071,150.490280 259.343048,158.015182 
	C259.251648,164.212265 256.548248,167.226379 250.157227,167.287949 
	C233.995575,167.443680 217.807281,167.863297 201.677612,167.126984 
	C192.646362,166.714706 189.568680,166.618240 189.624924,154.487076 
	C189.719162,134.158417 189.650375,113.829002 189.650009,92.999893 
z"/>
<path fill="#000000" opacity="1.000000" stroke="none" 
	d="
M370.994598,55.639320 
	C377.459381,55.728062 383.406830,55.463203 389.355835,56.638779 
	C403.541382,59.441952 412.323120,67.778870 414.047058,82.112091 
	C414.988098,89.936089 415.201263,98.009064 412.350067,105.767952 
	C408.041168,117.493759 397.988678,124.580803 385.587585,125.490196 
	C379.293549,125.951744 373.021790,126.426949 366.721466,126.354118 
	C363.525848,126.317177 362.261749,127.586494 362.303314,130.805817 
	C362.421478,139.961517 362.376801,149.119904 362.333801,158.276932 
	C362.305847,164.227539 358.851044,167.174561 352.275604,166.990662 
	C345.393707,166.798187 341.671082,163.701874 341.665985,157.958572 
	C341.638336,126.823975 341.640686,95.689323 341.666321,64.554710 
	C341.671173,58.682831 344.588989,55.745926 350.516602,55.667549 
	C357.175323,55.579498 363.835968,55.642448 370.994598,55.639320 
M370.613129,74.376480 
	C367.605743,75.204018 362.494049,72.037628 362.388763,78.415726 
	C362.243256,87.227371 362.408600,96.043762 362.328430,104.857101 
	C362.303040,107.648010 363.464081,108.737206 366.207275,108.677460 
	C371.027802,108.572464 375.856140,108.757629 380.673462,108.593597 
	C383.886261,108.484200 386.835388,107.489548 389.051514,104.882164 
	C394.906738,97.993340 394.742462,90.307678 391.717041,82.481987 
	C389.067352,75.628220 382.865509,74.711098 376.546570,74.385216 
	C374.887970,74.299675 373.221161,74.374519 370.613129,74.376480 
z"/>
<path fill="#000000" opacity="1.000000" stroke="none" 
	d="
M330.487274,164.345245 
	C327.901978,166.926910 324.994049,167.355652 321.944244,167.355545 
	C308.630035,167.355103 295.315460,167.307663 282.001892,167.401459 
	C279.436798,167.419510 277.051208,166.781616 274.686493,166.094513 
	C271.318085,165.115784 269.595795,162.930222 269.606537,159.116684 
	C269.697021,126.996361 269.695770,94.875565 269.593201,62.755329 
	C269.584259,59.959965 270.821533,58.442558 272.945129,57.220371 
	C281.630463,52.221771 290.321625,57.046268 290.329193,66.892975 
	C290.348450,91.857147 290.449890,116.822197 290.250610,141.784744 
	C290.214111,146.356110 291.469360,147.939117 296.138611,147.741348 
	C304.278870,147.396576 312.444489,147.636139 320.599426,147.655045 
	C331.475983,147.680252 335.439545,154.077728 330.487274,164.345245 
z"/>
</svg>