<svg width="94" height="48" viewBox="0 0 94 48" fill="none" xmlns="http://www.w3.org/2000/svg">
<g clip-path="url(#clip0_64_33)">
<path d="M93.8823 35.5007C94.0784 37.7958 91.4197 38.4497 91.411 38.4497L83.0514 38.5444C82.7637 26.5545 72.2205 27.037 72.2205 27.037C60.0603 27.5195 60.9145 38.5444 60.9145 38.5444L30.0388 38.4497C30.0388 26.2614 18.7329 27.046 18.7329 27.046C7.42689 27.6367 8.08938 38.4497 8.08938 38.4497L3.15119 38.5444C0.967574 38.0529 0.108948 35.3023 0.108948 35.3023V24.097C1.25088 18.199 7.13923 17.216 7.13923 17.216C11.7026 7.58447 14.7405 4.73468 14.7405 4.73468C17.9701 0.509599 25.2881 0.112793 25.2881 0.112793H48.4666C53.6925 0.509599 58.16 4.44159 58.16 4.44159C66.4237 12.5987 71.0786 16.1383 71.0786 16.1383C79.8218 15.7415 88.4647 20.165 88.4647 20.165C92.9583 22.6135 93.8038 27.5375 93.8823 27.5375V35.5007ZM90.3301 28.6062C90.3301 28.6062 91.2498 27.4473 90.3301 26.2163C90.3301 26.2163 88.9703 23.2944 87.5058 22.839C87.5058 22.839 85.4312 21.6756 84.2761 23.9617V26.3561C84.2761 26.3561 85.3309 29.4178 87.2704 29.4855C87.2704 29.4855 89.7504 29.3457 90.3301 28.6062ZM61.3591 17.6264C61.3591 17.6264 62.9456 16.9906 61.3591 15.5612C61.3591 15.5612 55.3226 8.88762 51.7878 7.30039C51.7878 7.30039 49.9965 6.07841 47.5426 6.02881H38.5336C38.5336 6.02881 37.5486 5.90255 37.6619 6.71871L38.9912 16.1429C38.9912 16.1429 38.9433 17.6264 40.5777 17.6264H61.3591ZM33.4646 16.197L32.0307 7.51232C32.0307 7.51232 32.035 5.9747 30.0388 6.02881H24.3553C24.3553 6.02881 19.5958 6.6646 17.8524 9.89316L14.7841 15.2951C14.7841 15.2951 13.4024 17.5723 15.294 17.6264H32.1353C32.1353 17.6264 33.4123 17.5723 33.4646 16.197Z" fill="#C03232"/>
<path d="M90.3301 26.2163C91.2498 27.4473 90.3301 28.6062 90.3301 28.6062C89.7504 29.3457 87.2704 29.4854 87.2704 29.4854C85.3309 29.4178 84.2762 26.3561 84.2762 26.3561V23.9617C85.4312 21.6756 87.5058 22.8389 87.5058 22.8389C88.9703 23.2944 90.3301 26.2163 90.3301 26.2163Z" fill="#F2F0DF"/>
<path d="M77.7297 37.9897C77.7297 37.9897 77.1892 43.1978 72.1116 43.3376C72.1116 43.3376 66.5806 43.2429 66.4891 37.8003C66.4891 37.8003 66.537 32.6373 71.9764 32.3127C71.9764 32.3127 77.4594 31.8031 77.7297 37.9897Z" fill="#ACACAD"/>
<path d="M83.0514 38.5445C83.0514 38.5445 82.5763 47.9461 72.5997 47.7657C72.5997 47.7657 63.5732 49.655 60.9145 38.5445C60.9145 38.5445 60.0602 27.5196 72.2205 27.0371C72.2205 27.0371 82.7637 26.5546 83.0514 38.5445ZM72.1115 43.3377C77.1892 43.1979 77.7297 37.9898 77.7297 37.9898C77.4594 31.8033 71.9764 32.3128 71.9764 32.3128C66.537 32.6375 66.4891 37.8005 66.4891 37.8005C66.5806 43.243 72.1115 43.3377 72.1115 43.3377Z" fill="#3D3D3D"/>
<path d="M61.3591 15.5611C62.9456 16.9905 61.3591 17.6263 61.3591 17.6263H40.5777C38.9433 17.6263 38.9912 16.1428 38.9912 16.1428L37.6619 6.71868C37.5486 5.90252 38.5336 6.02878 38.5336 6.02878H47.5426C49.9965 6.07838 51.7878 7.30036 51.7878 7.30036C55.3226 8.88758 61.3591 15.5611 61.3591 15.5611Z" fill="#3A4E87"/>
<path d="M32.0307 7.51225L33.4646 16.1969C33.4123 17.5722 32.1353 17.6263 32.1353 17.6263H15.294C13.4024 17.5722 14.784 15.2951 14.784 15.2951L17.8524 9.89309C19.5958 6.66453 24.3553 6.02874 24.3553 6.02874H30.0388C32.035 5.97463 32.0307 7.51225 32.0307 7.51225Z" fill="#3A4E87"/>
<path d="M30.0388 38.4498C30.0388 38.4498 29.7512 47.689 19.4912 47.689C19.4912 47.689 10.6565 49.2582 8.08938 38.4498C8.08938 38.4498 7.42689 27.6368 18.7329 27.0461C18.7329 27.0461 30.0388 26.2615 30.0388 38.4498ZM19.2385 43.3332C24.0851 43.2881 24.9525 37.7824 24.9525 37.7824C24.4338 31.7356 19.0598 32.3624 19.0598 32.3624C14.2959 32.4075 13.5244 37.7824 13.5244 37.7824C14.0431 43.7841 19.2385 43.3332 19.2385 43.3332Z" fill="#3D3D3D"/>
<path d="M24.9525 37.7822C24.9525 37.7822 24.0851 43.2879 19.2385 43.333C19.2385 43.333 14.0431 43.7839 13.5244 37.7822C13.5244 37.7822 14.2959 32.4073 19.0598 32.3622C19.0598 32.3622 24.4338 31.7355 24.9525 37.7822Z" fill="#ACACAD"/>
<path d="M24.4257 15.042V17.6318H26.3827C26.8671 17.624 27.2303 17.4834 27.4725 17.21C27.7108 16.9561 27.83 16.6436 27.83 16.2725C27.8221 15.8271 27.6796 15.5049 27.4022 15.3057C27.1835 15.1299 26.8671 15.042 26.453 15.042H24.4257ZM23.1307 22.4307V13.8877H26.4647C27.1757 13.8877 27.7557 14.0752 28.205 14.4502C28.7479 14.876 29.0311 15.4834 29.0546 16.2725C29.0389 17.4326 28.4882 18.2217 27.4022 18.6396L29.3827 22.4307H27.8417L26.078 18.7803H24.4257V22.4307H23.1307Z" fill="white"/>
<path d="M43.1803 15.042V17.6318H45.1374C45.6217 17.624 45.985 17.4834 46.2272 17.21C46.4655 16.9561 46.5846 16.6436 46.5846 16.2725C46.5768 15.8271 46.4342 15.5049 46.1569 15.3057C45.9381 15.1299 45.6217 15.042 45.2077 15.042H43.1803ZM41.8854 22.4307V13.8877H45.2194C45.9303 13.8877 46.5104 14.0752 46.9596 14.4502C47.5026 14.876 47.7858 15.4834 47.8092 16.2725C47.7936 17.4326 47.2428 18.2217 46.1569 18.6396L48.1374 22.4307H46.5963L44.8327 18.7803H43.1803V22.4307H41.8854Z" fill="white"/>
</g>
<defs>
<clipPath id="clip0_64_33">
<rect width="94" height="48" fill="white"/>
</clipPath>
</defs>
</svg>
