<?xml version="1.0" encoding="UTF-8"?>
<svg id="Lag_2" data-name="Lag 2" xmlns="http://www.w3.org/2000/svg" viewBox="0 0 215.67 106.45">
  <defs>
    <style>
      .cls-1 {
        fill: #fff;
        font-family: DINAlternate-Bold, 'DIN Alternate';
        font-size: 30px;
        font-weight: 700;
      }

      .cls-2 {
        fill: #acacad;
      }

      .cls-3 {
        fill: #f2f0df;
      }

      .cls-4 {
        fill: #3a4e87;
      }

      .cls-5 {
        fill: #3d3d3d;
      }

      .cls-6 {
        fill: #c03232;
      }
    </style>
  </defs>
  <g id="Lag_1-2" data-name="Lag 1">
    <g>
      <g>
        <path class="cls-6" d="M215.4,78.73c.45,5.09-5.65,6.54-5.67,6.54l-19.18.21c-.66-26.59-24.85-25.52-24.85-25.52-27.9,1.07-25.94,25.52-25.94,25.52l-70.84-.21c0-27.03-25.94-25.29-25.94-25.29-25.94,1.31-24.42,25.29-24.42,25.29l-11.33.21c-5.01-1.09-6.98-7.19-6.98-7.19v-24.85c2.62-13.08,16.13-15.26,16.13-15.26,10.47-21.36,17.44-27.68,17.44-27.68C41.23,1.13,58.02.25,58.02.25h53.18c11.99.88,22.24,9.6,22.24,9.6,18.96,18.09,29.64,25.94,29.64,25.94,20.06-.88,39.89,8.93,39.89,8.93,10.31,5.43,12.25,16.35,12.43,16.35v17.66ZM207.25,63.44s2.11-2.57,0-5.3c0,0-3.12-6.48-6.48-7.49,0,0-4.76-2.58-7.41,2.49v5.31s2.42,6.79,6.87,6.94c0,0,5.69-.31,7.02-1.95ZM140.78,39.09s3.64-1.41,0-4.58c0,0-13.85-14.8-21.96-18.32,0,0-4.11-2.71-9.74-2.82h-20.67s-2.26-.28-2,1.53l3.05,20.9s-.11,3.29,3.64,3.29h47.68ZM76.78,35.92l-3.29-19.26s.01-3.41-4.57-3.29h-13.04s-10.92,1.41-14.92,8.57l-7.04,11.98s-3.17,5.05,1.17,5.17h38.64s2.93-.12,3.05-3.17Z"/>
        <path class="cls-3" d="M207.25,58.14c2.11,2.73,0,5.3,0,5.3-1.33,1.64-7.02,1.95-7.02,1.95-4.45-.15-6.87-6.94-6.87-6.94v-5.31c2.65-5.07,7.41-2.49,7.41-2.49,3.36,1.01,6.48,7.49,6.48,7.49Z"/>
        <path class="cls-2" d="M178.34,84.25s-1.24,11.55-12.89,11.86c0,0-12.69-.21-12.9-12.28,0,0,.11-11.45,12.59-12.17,0,0,12.58-1.13,13.2,12.59Z"/>
        <path class="cls-5" d="M190.55,85.48s-1.09,20.85-23.98,20.45c0,0-20.71,4.19-26.81-20.45,0,0-1.96-24.45,25.94-25.52,0,0,24.19-1.07,24.85,25.52ZM165.45,96.11c11.65-.31,12.89-11.86,12.89-11.86-.62-13.72-13.2-12.59-13.2-12.59-12.48.72-12.59,12.17-12.59,12.17.21,12.07,12.9,12.28,12.9,12.28Z"/>
        <path class="cls-4" d="M140.78,34.51c3.64,3.17,0,4.58,0,4.58h-47.68c-3.75,0-3.64-3.29-3.64-3.29l-3.05-20.9c-.26-1.81,2-1.53,2-1.53h20.67c5.63.11,9.74,2.82,9.74,2.82,8.11,3.52,21.96,18.32,21.96,18.32Z"/>
        <path class="cls-4" d="M73.49,16.66l3.29,19.26c-.12,3.05-3.05,3.17-3.05,3.17h-38.64c-4.34-.12-1.17-5.17-1.17-5.17l7.04-11.98c4-7.16,14.92-8.57,14.92-8.57h13.04c4.58-.12,4.57,3.29,4.57,3.29Z"/>
        <path class="cls-5" d="M68.92,85.27s-.66,20.49-24.2,20.49c0,0-20.27,3.48-26.16-20.49,0,0-1.52-23.98,24.42-25.29,0,0,25.94-1.74,25.94,25.29ZM44.14,96.1c11.12-.1,13.11-12.31,13.11-12.31-1.19-13.41-13.52-12.02-13.52-12.02-10.93.1-12.7,12.02-12.7,12.02,1.19,13.31,13.11,12.31,13.11,12.31Z"/>
        <path class="cls-2" d="M57.25,83.79s-1.99,12.21-13.11,12.31c0,0-11.92,1-13.11-12.31,0,0,1.77-11.92,12.7-12.02,0,0,12.33-1.39,13.52,12.02Z"/>
      </g>
      <text class="cls-1" transform="translate(51 37.35)"><tspan x="0" y="0">R</tspan></text>
      <text class="cls-1" transform="translate(94.03 37.35)"><tspan x="0" y="0">R</tspan></text>
    </g>
  </g>
</svg>